# xmcd
#
# Track frame offsets: 
#        150
#        75773
#        119784
#        160899
#        243422
#        266666
#
# Disc length: 4138 seconds
#
# Revision: 0
# Processed by: cddbd v1.4PL0 Copyright (c) Steve Scherf et al.
# Submitted via: ExactAudioCopy v0.95a3
#
DISCID=46102806
DTITLE=Ludwig van Beethoven - Concertos Pour Piano 3 and 4
DYEAR=1900
DGENRE=Instrumental
TTITLE0=Nr. 3 - I: Allegro con brio
TTITLE1=Nr. 3 - II: Largo
TTITLE2=Nr. 3 - III: Rondo (Allegro)
TTITLE3=Nr. 4 - I: Allegro maestoso
TTITLE4=Nr. 4 - II: Andante con moto
TTITLE5=Nr. 4 - III: Rondo (Vivace)
EXTD=
EXTT0=
EXTT1=
EXTT2=
EXTT3=
EXTT4=
EXTT5=
PLAYORDER=
